<?xml version="1.0" standalone="no"?>
<!DOCTYPE svg PUBLIC "-//W3C//DTD SVG 20010904//EN"
 "http://www.w3.org/TR/2001/REC-SVG-20010904/DTD/svg10.dtd">
<svg version="1.0" xmlns="http://www.w3.org/2000/svg"
 width="1000.000000pt" height="1000.000000pt" viewBox="0 0 1000.000000 1000.000000"
 preserveAspectRatio="xMidYMid meet">
<metadata>
Created by potrace 1.11, written by Peter Selinger 2001-2013
</metadata>
<g transform="translate(0.000000,1000.000000) scale(0.100000,-0.100000)"
fill="#000000" stroke="none">
<path d="M3204 6553 l1 -218 265 -2 c146 -1 279 -3 295 -3 l30 -1 -25 -20
c-14 -11 -70 -64 -124 -117 -227 -222 -366 -435 -450 -692 -165 -508 -74
-1069 248 -1525 63 -90 89 -121 194 -227 l85 -88 -866 0 -867 0 0 -213 0 -214
2315 0 2315 0 1 21 c0 12 1 107 1 211 l0 190 -275 5 -275 5 76 80 c218 228
375 516 446 816 40 173 50 256 48 434 -4 492 -215 959 -573 1271 -31 27 -56
53 -55 58 2 13 368 8 513 -8 258 -29 397 -70 538 -162 80 -52 174 -138 224
-204 14 -19 28 -37 31 -40 4 -3 17 -23 30 -45 13 -22 27 -42 31 -45 15 -11
109 -220 128 -285 55 -191 70 -306 71 -555 0 -137 -1 -166 -16 -285 -35 -293
-165 -578 -352 -777 -77 -81 -128 -120 -242 -181 l-85 -46 0 -210 c0 -151 3
-211 11 -211 7 0 47 12 90 26 411 138 715 449 884 904 38 102 83 287 96 390 3
25 9 74 14 110 4 36 8 160 8 275 1 213 -12 373 -43 527 -44 216 -153 475 -271
639 -54 76 -195 227 -254 274 -209 163 -465 270 -743 310 -84 12 -105 14 -162
20 -33 3 -80 8 -105 12 -25 3 -756 8 -1626 10 l-1581 4 1 -218z m1851 -208
c222 -16 441 -90 625 -210 94 -61 260 -227 321 -320 128 -193 196 -395 218
-644 8 -89 6 -275 -2 -338 -22 -153 -36 -212 -79 -338 -28 -82 -112 -245 -130
-253 -5 -2 -8 -8 -8 -13 0 -20 -109 -147 -193 -225 -235 -219 -545 -332 -897
-328 -98 1 -227 11 -240 19 -3 2 -25 6 -50 10 -24 4 -52 11 -62 16 -10 5 -18
7 -18 5 0 -8 -135 42 -210 77 -380 179 -646 501 -745 901 -31 127 -39 201 -39
341 0 97 9 220 19 247 2 7 7 24 9 38 10 50 14 67 41 145 109 326 353 603 655
743 175 82 296 114 485 128 44 4 81 8 83 9 3 2 127 -3 217 -10z"/>
</g>
</svg>
